<?xml version="1.0" encoding="UTF-8"?>
<svg id="Camada_2" data-name="Camada 2" xmlns="http://www.w3.org/2000/svg" viewBox="0 0 71.44 71.44">
  <defs>
    <style>
      .cls-1 {
        fill: #f1eff4;
      }

      .cls-2 {
        fill: #6366f1;
      }
    </style>
  </defs>
  <g id="Camada_1-2" data-name="Camada 1">
    <g>
      <path class="cls-2" d="M71.44,15.77v39.89c0,7.6-5.36,13.94-12.5,15.44-1.05.22-2.15.34-3.27.34H15.77c-1.11,0-2.2-.12-3.24-.33-7.16-1.5-12.53-7.84-12.53-15.45V15.77C0,7.06,7.06,0,15.77,0h39.9c8.71,0,15.77,7.06,15.77,15.77Z"/>
      <path class="cls-1" d="M39.95,57.48c-4.23-.17-5.81-.67-5.81-1.83s1.08-1.66,4.48-1.91c11.13-1.16,18.18-7.55,18.18-16.76,0-3.74-1.49-7.22-3.9-10.13,1.99-4.56,1.74-9.95-1.74-14.68l-8.22,3.32c1.24,1.99,1.99,3.98,2.24,5.8-2.57-1.08-5.39-1.66-8.38-1.66-7.64,0-12.7,3.57-12.7,8.88,0,4.98,4.98,8.39,12.2,8.39,3.82,0,7.14-1,9.96-2.66.25.91.33,1.83.33,2.82,0,5.73-3.98,8.72-11.62,8.72-6.14,0-9.71-2.25-9.71-5.98,0-.83.25-1.58.67-2.32l-6.97-4.98c-2.41,2.4-3.65,5.06-3.65,8.38,0,6.39,5.22,10.95,13.44,12.53-3.07,1-4.81,2.9-4.81,5.31,0,3.57,3.32,5.73,12.44,6.31,10.05.66,12.53,1.66,12.53,4.15,0,.94-.41,1.69-1.33,2.26h8.09c1.12,0,2.22-.12,3.27-.34.12-.59.18-1.2.18-1.84,0-7.47-6.06-11.2-19.17-11.78ZM36.14,30.67c-1.66,0-2.66-.75-2.66-1.99s1.16-1.91,3.07-1.91c2.24,0,4.23.66,5.89,1.83-1.57,1.32-3.65,2.07-6.3,2.07ZM22.53,68.35c0-1.08.49-1.83,1.16-2.33l-4.9-6.47c-3.65,1.91-6.47,4.9-6.47,9.38,0,.76.07,1.48.21,2.18,1.04.21,2.13.33,3.24.33h8.74c-1.33-.75-1.98-1.77-1.98-3.09Z"/>
    </g>
  </g>
</svg>