<?xml version="1.0" encoding="UTF-8"?>
<svg xmlns="http://www.w3.org/2000/svg" xmlns:xlink="http://www.w3.org/1999/xlink" viewBox="0 0 1200 630" width="1200" height="630">
  <defs>
    <linearGradient id="bg" x1="0%" y1="0%" x2="100%" y2="100%">
      <stop offset="0%" stop-color="#6366f1"/>
      <stop offset="100%" stop-color="#4f46e5"/>
    </linearGradient>
  </defs>
  <rect width="1200" height="630" fill="url(#bg)"/>
  <!-- Logo Gradly centralizado e escalado (gradly.svg) -->
  <g transform="translate(600, 315) scale(2.35) translate(-107.145, -32.465)">
      <path fill="#f1eff4" d="M41.16,40.59c0-5.62,3.09-12.17,7.75-17.57-1.66-3.24-3.61-6.77-5.87-10.51h9.41l2.41,4.9c4.67-3.6,9.86-5.38,15.13-5.38,6.02,0,9.94,2.86,9.94,8.11,0,5.76-3.61,9.72-9.03,13.97l-5.42-5.47c3.46-2.52,5.19-4.97,5.19-7.34,0-1.66-.9-2.52-2.78-2.52-3.01,0-6.7,1.94-10.09,4.97,2.41,5.54,4.14,10.95,4.14,15.48,0,7.34-3.46,11.61-10.99,11.61-5.87,0-9.79-3.47-9.79-10.24ZM51.24,43.47c1.81,0,2.71-1.37,2.71-4.18,0-2.59-.6-5.47-1.81-8.79-1.81,3.1-3.01,6.48-3.01,9.72,0,1.94.53,3.24,2.11,3.24Z"/>
      <path fill="#f1eff4" d="M17.87,64.93c-3.18,0-5.91-.43-8.19-1.28-2.28-.86-4.12-2-5.5-3.44s-2.35-3.02-2.88-4.77l7.97-1.93c.36.73.88,1.46,1.57,2.19.68.72,1.61,1.33,2.77,1.81s2.64.72,4.41.72c2.51,0,4.59-.61,6.23-1.82,1.65-1.21,2.47-3.21,2.47-5.98v-7.11h-.44c-.46.91-1.12,1.85-1.99,2.81-.87.96-2.02,1.77-3.45,2.42-1.43.65-3.22.98-5.37.98-2.88,0-5.5-.68-7.84-2.04-2.34-1.36-4.2-3.4-5.57-6.11s-2.07-6.12-2.07-10.21.69-7.61,2.07-10.45c1.38-2.84,3.24-5,5.59-6.48,2.35-1.47,4.96-2.21,7.85-2.21,2.2,0,4.01.37,5.44,1.11,1.43.74,2.56,1.63,3.41,2.67.85,1.04,1.49,2.01,1.93,2.92h.49v-6.21h8.73v38.16c0,3.21-.77,5.87-2.3,7.97-1.53,2.1-3.63,3.67-6.28,4.72-2.66,1.04-5.67,1.56-9.05,1.56ZM17.95,42.59c1.87,0,3.47-.46,4.79-1.37,1.32-.91,2.32-2.23,3.01-3.94.68-1.71,1.03-3.77,1.03-6.16s-.34-4.43-1.01-6.21c-.68-1.78-1.67-3.16-2.98-4.14s-2.92-1.48-4.83-1.48-3.62.51-4.94,1.54c-1.32,1.03-2.31,2.43-2.98,4.22-.67,1.78-1,3.81-1,6.08s.34,4.31,1.02,6.03c.68,1.72,1.68,3.06,3.01,4.01,1.33.95,2.96,1.43,4.9,1.43Z"/>
      <path fill="#f1eff4" d="M95.5,50.83c-2.38,0-4.52-.43-6.42-1.28-1.9-.86-3.4-2.12-4.5-3.8s-1.65-3.75-1.65-6.21c0-2.12.39-3.87,1.17-5.26.78-1.38,1.85-2.49,3.2-3.32,1.35-.83,2.88-1.46,4.58-1.9,1.7-.43,3.47-.75,5.29-.94,2.2-.23,3.99-.44,5.35-.62s2.37-.48,3-.88c.63-.4.94-1.02.94-1.87v-.15c0-1.84-.55-3.27-1.64-4.28-1.09-1.01-2.66-1.52-4.72-1.52-2.17,0-3.88.47-5.15,1.42-1.26.94-2.12,2.06-2.55,3.35l-8.26-1.17c.65-2.28,1.73-4.19,3.23-5.73,1.5-1.54,3.33-2.7,5.5-3.47,2.17-.77,4.56-1.16,7.19-1.16,1.81,0,3.61.21,5.4.64s3.43,1.12,4.91,2.09c1.48.97,2.68,2.29,3.58,3.95.9,1.66,1.36,3.74,1.36,6.23v25.13h-8.51v-5.16h-.29c-.54,1.04-1.29,2.02-2.26,2.92-.97.9-2.18,1.63-3.64,2.18-1.46.55-3.17.82-5.12.82ZM97.8,44.32c1.78,0,3.32-.35,4.62-1.06,1.3-.71,2.31-1.65,3.02-2.82s1.06-2.45,1.06-3.84v-4.43c-.28.23-.75.44-1.41.63-.66.2-1.4.37-2.21.51-.82.15-1.62.28-2.42.39-.8.11-1.49.21-2.08.29-1.32.18-2.5.47-3.54.88s-1.87.97-2.47,1.7c-.6.73-.9,1.66-.9,2.8,0,1.63.59,2.86,1.78,3.69s2.71,1.25,4.55,1.25Z"/>
      <path fill="#f1eff4" d="M136.48,50.73c-2.95,0-5.59-.76-7.92-2.27-2.33-1.52-4.17-3.72-5.53-6.6-1.35-2.89-2.03-6.39-2.03-10.51s.69-7.7,2.07-10.57,3.24-5.05,5.59-6.53c2.35-1.47,4.96-2.21,7.85-2.21,2.2,0,4.01.37,5.43,1.11,1.42.74,2.54,1.63,3.37,2.67.83,1.04,1.48,2.01,1.93,2.92h.37V0h8.87v50.07h-8.7v-5.92h-.54c-.46.91-1.12,1.88-1.98,2.9-.86,1.02-2,1.89-3.42,2.6-1.42.72-3.2,1.08-5.35,1.08ZM138.95,43.47c1.87,0,3.47-.51,4.79-1.53,1.32-1.02,2.32-2.44,3.01-4.27s1.03-3.95,1.03-6.38-.34-4.54-1.01-6.33c-.68-1.79-1.67-3.19-2.98-4.18s-2.92-1.49-4.83-1.49-3.62.51-4.94,1.54c-1.32,1.03-2.31,2.44-2.98,4.25-.67,1.81-1,3.88-1,6.21s.34,4.44,1.02,6.27c.68,1.83,1.68,3.28,3.01,4.33,1.33,1.05,2.96,1.58,4.9,1.58Z"/>
      <path fill="#f1eff4" d="M172.49,0v50.07h-8.85V0h8.85Z"/>
      <path fill="#f1eff4" d="M186.25,64.15c-1.21,0-2.32-.09-3.34-.28-1.02-.19-1.83-.4-2.43-.65l2.05-6.9c1.29.38,2.44.55,3.45.54,1.01-.02,1.9-.33,2.68-.94.77-.61,1.43-1.63,1.97-3.04l.76-2.03-13.62-38.34h9.39l8.66,28.36h.39l8.68-28.36h9.41l-15.04,42.1c-.7,1.99-1.63,3.69-2.79,5.12-1.16,1.43-2.57,2.52-4.24,3.28s-3.66,1.14-5.98,1.14Z"/>
  </g>
</svg>
